# Blender 3.5.1
# www.blender.org
mtllib lab.mtl
o WALLS
v 1.245974 0.023692 -1.255045
v 1.245974 0.273692 -1.255045
v 1.245975 0.023692 0.742369
v 1.245975 0.273692 0.742369
v 1.222219 0.023692 -1.255045
v 1.222219 0.273692 -1.255045
v 1.222220 0.023692 0.742369
v 1.222220 0.273692 0.742369
v -0.187231 0.023692 -1.247000
v -0.187231 0.273692 -1.247000
v -0.187231 0.023692 -0.821594
v -0.187231 0.273692 -0.821594
v -0.210985 0.023692 -1.247000
v -0.210985 0.273692 -1.247000
v -0.210985 0.023692 -0.821594
v -0.210985 0.273692 -0.821594
v 1.235263 0.023692 -1.231689
v 1.235263 0.273692 -1.231689
v -1.253425 0.023692 -1.231689
v -1.253425 0.273692 -1.231689
v 1.235263 0.023692 -1.255444
v 1.235263 0.273692 -1.255444
v -1.253425 0.023692 -1.255444
v -1.253425 0.273692 -1.255444
v 0.321612 0.023692 -0.763356
v 0.321612 0.273692 -0.763356
v 0.321612 0.023692 -0.317853
v 0.321612 0.273692 -0.317853
v 0.297857 0.023692 -0.763356
v 0.297857 0.273692 -0.763356
v 0.297857 0.023692 -0.317853
v 0.297857 0.273692 -0.317853
v -0.698591 0.023692 -0.684625
v -0.698591 0.273692 -0.684625
v -0.698591 0.023692 -0.315905
v -0.698591 0.273692 -0.315905
v -0.722346 0.023692 -0.684625
v -0.722346 0.273692 -0.684625
v -0.722346 0.023692 -0.315905
v -0.722346 0.273692 -0.315905
v 0.654826 0.023692 -0.321625
v 0.654826 0.273692 -0.321625
v -0.733574 0.023692 -0.321625
v -0.733574 0.273692 -0.321625
v 0.654826 0.023692 -0.345380
v 0.654826 0.273692 -0.345380
v -0.733574 0.023692 -0.345379
v -0.733574 0.273692 -0.345379
v -0.123393 0.023692 -0.347236
v -0.123393 0.273692 -0.347236
v -0.123393 0.023692 0.216773
v -0.123393 0.273692 0.216773
v -0.147148 0.023692 -0.347236
v -0.147148 0.273692 -0.347236
v -0.147148 0.023692 0.216773
v -0.147148 0.273692 0.216773
v -0.125203 0.023692 0.212407
v -0.125203 0.273692 0.212407
v -0.683617 0.023692 0.212407
v -0.683617 0.273692 0.212407
v -0.125203 0.023692 0.188653
v -0.125203 0.273692 0.188653
v -0.683617 0.023692 0.188653
v -0.683617 0.273692 0.188653
v -0.665805 0.023692 0.184266
v -0.665805 0.273692 0.184266
v -0.665804 0.023692 1.246179
v -0.665804 0.273692 1.246179
v -0.689559 0.023692 0.184266
v -0.689559 0.273692 0.184266
v -0.689559 0.023692 1.246179
v -0.689559 0.273692 1.246179
v -0.079492 0.023692 1.238995
v -0.079492 0.273692 1.238995
v -1.261875 0.023692 1.238996
v -1.261875 0.273692 1.238996
v -0.079492 0.023692 1.215240
v -0.079492 0.273692 1.215240
v -1.261875 0.023692 1.215241
v -1.261875 0.273692 1.215241
v -0.104836 0.023692 1.243755
v -0.104836 0.273692 1.243755
v -0.104836 0.023692 0.728433
v -0.104836 0.273692 0.728433
v -0.081081 0.023692 1.243755
v -0.081081 0.273692 1.243755
v -0.081081 0.023692 0.728433
v -0.081081 0.273692 0.728433
v -0.104870 0.023692 0.730819
v -0.104870 0.273692 0.730819
v 1.248458 0.023692 0.730818
v 1.248458 0.273692 0.730818
v -0.104870 0.023692 0.754573
v -0.104870 0.273692 0.754573
v 1.248458 0.023692 0.754573
v 1.248458 0.273692 0.754573
v -1.254525 0.023692 1.230165
v -1.254525 0.273692 1.230165
v -1.254525 0.023692 -1.235122
v -1.254525 0.273692 -1.235122
v -1.230770 0.023692 1.230165
v -1.230770 0.273692 1.230165
v -1.230770 0.023692 -1.235122
v -1.230770 0.273692 -1.235122
v 1.235852 0.023692 -0.755631
v 1.235852 0.273692 -0.755631
v 0.869480 0.023692 -0.755631
v 0.869480 0.273692 -0.755631
v 1.235852 0.023692 -0.779386
v 1.235852 0.273692 -0.779386
v 0.869480 0.023692 -0.779386
v 0.869480 0.273692 -0.779386
v 0.341496 0.023692 0.752725
v 0.341496 0.273692 0.752725
v 0.341496 0.023692 0.236717
v 0.341496 0.273692 0.236717
v 0.365251 0.023692 0.752725
v 0.365251 0.273692 0.752725
v 0.365251 0.023692 0.236717
v 0.365251 0.273692 0.236717
v 0.772587 0.023692 0.266172
v 0.772587 0.273692 0.266172
v 0.340002 0.023692 0.266172
v 0.340002 0.273692 0.266172
v 0.772587 0.023692 0.242417
v 0.772587 0.273692 0.242417
v 0.340002 0.023692 0.242417
v 0.340002 0.273692 0.242417
vn 1.0000 -0.0000 -0.0000
vn -0.0000 -0.0000 1.0000
vn -1.0000 -0.0000 -0.0000
vn -0.0000 -0.0000 -1.0000
vn -0.0000 -1.0000 -0.0000
vn -0.0000 1.0000 -0.0000
vt 0.375000 0.000000
vt 0.375000 1.000000
vt 0.125000 0.750000
vt 0.625000 0.000000
vt 0.625000 1.000000
vt 0.875000 0.750000
vt 0.125000 0.500000
vt 0.375000 0.250000
vt 0.625000 0.250000
vt 0.875000 0.500000
vt 0.375000 0.750000
vt 0.625000 0.750000
vt 0.375000 0.500000
vt 0.625000 0.500000
vt 0.375000 0.000000
vt 0.375000 1.000000
vt 0.125000 0.750000
vt 0.625000 0.000000
vt 0.625000 1.000000
vt 0.875000 0.750000
vt 0.125000 0.500000
vt 0.375000 0.250000
vt 0.625000 0.250000
vt 0.875000 0.500000
vt 0.375000 0.750000
vt 0.625000 0.750000
vt 0.375000 0.500000
vt 0.625000 0.500000
vt 0.375000 0.000000
vt 0.375000 1.000000
vt 0.125000 0.750000
vt 0.625000 0.000000
vt 0.625000 1.000000
vt 0.875000 0.750000
vt 0.125000 0.500000
vt 0.375000 0.250000
vt 0.625000 0.250000
vt 0.875000 0.500000
vt 0.375000 0.750000
vt 0.625000 0.750000
vt 0.375000 0.500000
vt 0.625000 0.500000
vt 0.375000 0.000000
vt 0.375000 1.000000
vt 0.125000 0.750000
vt 0.625000 0.000000
vt 0.625000 1.000000
vt 0.875000 0.750000
vt 0.125000 0.500000
vt 0.375000 0.250000
vt 0.625000 0.250000
vt 0.875000 0.500000
vt 0.375000 0.750000
vt 0.625000 0.750000
vt 0.375000 0.500000
vt 0.625000 0.500000
vt 0.375000 0.000000
vt 0.375000 1.000000
vt 0.125000 0.750000
vt 0.625000 0.000000
vt 0.625000 1.000000
vt 0.875000 0.750000
vt 0.125000 0.500000
vt 0.375000 0.250000
vt 0.625000 0.250000
vt 0.875000 0.500000
vt 0.375000 0.750000
vt 0.625000 0.750000
vt 0.375000 0.500000
vt 0.625000 0.500000
vt 0.375000 0.000000
vt 0.375000 1.000000
vt 0.125000 0.750000
vt 0.625000 0.000000
vt 0.625000 1.000000
vt 0.875000 0.750000
vt 0.125000 0.500000
vt 0.375000 0.250000
vt 0.625000 0.250000
vt 0.875000 0.500000
vt 0.375000 0.750000
vt 0.625000 0.750000
vt 0.375000 0.500000
vt 0.625000 0.500000
vt 0.375000 0.000000
vt 0.375000 1.000000
vt 0.125000 0.750000
vt 0.625000 0.000000
vt 0.625000 1.000000
vt 0.875000 0.750000
vt 0.125000 0.500000
vt 0.375000 0.250000
vt 0.625000 0.250000
vt 0.875000 0.500000
vt 0.375000 0.750000
vt 0.625000 0.750000
vt 0.375000 0.500000
vt 0.625000 0.500000
vt 0.375000 0.000000
vt 0.375000 1.000000
vt 0.125000 0.750000
vt 0.625000 0.000000
vt 0.625000 1.000000
vt 0.875000 0.750000
vt 0.125000 0.500000
vt 0.375000 0.250000
vt 0.625000 0.250000
vt 0.875000 0.500000
vt 0.375000 0.750000
vt 0.625000 0.750000
vt 0.375000 0.500000
vt 0.625000 0.500000
vt 0.375000 0.000000
vt 0.375000 1.000000
vt 0.125000 0.750000
vt 0.625000 0.000000
vt 0.625000 1.000000
vt 0.875000 0.750000
vt 0.125000 0.500000
vt 0.375000 0.250000
vt 0.625000 0.250000
vt 0.875000 0.500000
vt 0.375000 0.750000
vt 0.625000 0.750000
vt 0.375000 0.500000
vt 0.625000 0.500000
vt 0.375000 0.000000
vt 0.375000 1.000000
vt 0.125000 0.750000
vt 0.625000 0.000000
vt 0.625000 1.000000
vt 0.875000 0.750000
vt 0.125000 0.500000
vt 0.375000 0.250000
vt 0.625000 0.250000
vt 0.875000 0.500000
vt 0.375000 0.750000
vt 0.625000 0.750000
vt 0.375000 0.500000
vt 0.625000 0.500000
vt 0.375000 0.000000
vt 0.375000 1.000000
vt 0.125000 0.750000
vt 0.625000 0.000000
vt 0.625000 1.000000
vt 0.875000 0.750000
vt 0.125000 0.500000
vt 0.375000 0.250000
vt 0.625000 0.250000
vt 0.875000 0.500000
vt 0.375000 0.750000
vt 0.625000 0.750000
vt 0.375000 0.500000
vt 0.625000 0.500000
vt 0.375000 0.000000
vt 0.375000 1.000000
vt 0.125000 0.750000
vt 0.625000 0.000000
vt 0.625000 1.000000
vt 0.875000 0.750000
vt 0.125000 0.500000
vt 0.375000 0.250000
vt 0.625000 0.250000
vt 0.875000 0.500000
vt 0.375000 0.750000
vt 0.625000 0.750000
vt 0.375000 0.500000
vt 0.625000 0.500000
vt 0.375000 0.000000
vt 0.375000 1.000000
vt 0.125000 0.750000
vt 0.625000 0.000000
vt 0.625000 1.000000
vt 0.875000 0.750000
vt 0.125000 0.500000
vt 0.375000 0.250000
vt 0.625000 0.250000
vt 0.875000 0.500000
vt 0.375000 0.750000
vt 0.625000 0.750000
vt 0.375000 0.500000
vt 0.625000 0.500000
vt 0.375000 0.000000
vt 0.375000 1.000000
vt 0.125000 0.750000
vt 0.625000 0.000000
vt 0.625000 1.000000
vt 0.875000 0.750000
vt 0.125000 0.500000
vt 0.375000 0.250000
vt 0.625000 0.250000
vt 0.875000 0.500000
vt 0.375000 0.750000
vt 0.625000 0.750000
vt 0.375000 0.500000
vt 0.625000 0.500000
vt 0.375000 0.000000
vt 0.125000 0.750000
vt 0.375000 1.000000
vt 0.625000 0.000000
vt 0.625000 1.000000
vt 0.875000 0.750000
vt 0.375000 0.250000
vt 0.125000 0.500000
vt 0.625000 0.250000
vt 0.875000 0.500000
vt 0.375000 0.750000
vt 0.625000 0.750000
vt 0.375000 0.500000
vt 0.625000 0.500000
vt 0.375000 0.000000
vt 0.125000 0.750000
vt 0.375000 1.000000
vt 0.625000 0.000000
vt 0.625000 1.000000
vt 0.875000 0.750000
vt 0.375000 0.250000
vt 0.125000 0.500000
vt 0.625000 0.250000
vt 0.875000 0.500000
vt 0.375000 0.750000
vt 0.625000 0.750000
vt 0.375000 0.500000
vt 0.625000 0.500000
s 0
usemtl Wall
f 2/4/1 3/8/1 1/1/1
f 4/9/2 7/13/2 3/8/2
f 8/14/3 5/11/3 7/13/3
f 6/12/4 1/2/4 5/11/4
f 7/13/5 1/3/5 3/7/5
f 4/10/6 6/12/6 8/14/6
f 10/18/1 11/22/1 9/15/1
f 12/23/2 15/27/2 11/22/2
f 16/28/3 13/25/3 15/27/3
f 14/26/4 9/16/4 13/25/4
f 15/27/5 9/17/5 11/21/5
f 12/24/6 14/26/6 16/28/6
f 18/32/2 19/36/2 17/29/2
f 20/37/3 23/41/3 19/36/3
f 24/42/4 21/39/4 23/41/4
f 22/40/1 17/30/1 21/39/1
f 23/41/5 17/31/5 19/35/5
f 20/38/6 22/40/6 24/42/6
f 26/46/1 27/50/1 25/43/1
f 28/51/2 31/55/2 27/50/2
f 32/56/3 29/53/3 31/55/3
f 30/54/4 25/44/4 29/53/4
f 31/55/5 25/45/5 27/49/5
f 32/56/6 26/48/6 30/54/6
f 34/60/1 35/64/1 33/57/1
f 36/65/2 39/69/2 35/64/2
f 40/70/3 37/67/3 39/69/3
f 38/68/4 33/58/4 37/67/4
f 39/69/5 33/59/5 35/63/5
f 36/66/6 38/68/6 40/70/6
f 42/74/2 43/78/2 41/71/2
f 44/79/3 47/83/3 43/78/3
f 48/84/4 45/81/4 47/83/4
f 46/82/1 41/72/1 45/81/1
f 47/83/5 41/73/5 43/77/5
f 44/80/6 46/82/6 48/84/6
f 50/88/1 51/92/1 49/85/1
f 52/93/2 55/97/2 51/92/2
f 56/98/3 53/95/3 55/97/3
f 54/96/4 49/86/4 53/95/4
f 55/97/5 49/87/5 51/91/5
f 52/94/6 54/96/6 56/98/6
f 58/102/2 59/106/2 57/99/2
f 60/107/3 63/111/3 59/106/3
f 64/112/4 61/109/4 63/111/4
f 62/110/1 57/100/1 61/109/1
f 63/111/5 57/101/5 59/105/5
f 64/112/6 58/104/6 62/110/6
f 66/116/1 67/120/1 65/113/1
f 68/121/2 71/125/2 67/120/2
f 72/126/3 69/123/3 71/125/3
f 70/124/4 65/114/4 69/123/4
f 71/125/5 65/115/5 67/119/5
f 68/122/6 70/124/6 72/126/6
f 74/130/2 75/134/2 73/127/2
f 76/135/3 79/139/3 75/134/3
f 80/140/4 77/137/4 79/139/4
f 78/138/1 73/128/1 77/137/1
f 79/139/5 73/129/5 75/133/5
f 76/136/6 78/138/6 80/140/6
f 82/144/3 83/148/3 81/141/3
f 84/149/4 87/153/4 83/148/4
f 88/154/1 85/151/1 87/153/1
f 86/152/2 81/142/2 85/151/2
f 87/153/5 81/143/5 83/147/5
f 88/154/6 82/146/6 86/152/6
f 90/158/4 91/162/4 89/155/4
f 92/163/1 95/167/1 91/162/1
f 96/168/2 93/165/2 95/167/2
f 94/166/3 89/156/3 93/165/3
f 95/167/5 89/157/5 91/161/5
f 92/164/6 94/166/6 96/168/6
f 98/172/3 99/176/3 97/169/3
f 100/177/4 103/181/4 99/176/4
f 104/182/1 101/179/1 103/181/1
f 102/180/2 97/170/2 101/179/2
f 103/181/5 97/171/5 99/175/5
f 100/178/6 102/180/6 104/182/6
f 106/186/2 107/190/2 105/183/2
f 108/191/3 111/195/3 107/190/3
f 112/196/4 109/193/4 111/195/4
f 110/194/1 105/184/1 109/193/1
f 111/195/5 105/185/5 107/189/5
f 108/192/6 110/194/6 112/196/6
f 114/200/3 115/203/3 113/197/3
f 116/205/4 119/209/4 115/203/4
f 120/210/1 117/207/1 119/209/1
f 118/208/2 113/199/2 117/207/2
f 115/204/5 117/207/5 113/198/5
f 116/206/6 118/208/6 120/210/6
f 122/214/2 123/217/2 121/211/2
f 124/219/3 127/223/3 123/217/3
f 128/224/4 125/221/4 127/223/4
f 126/222/1 121/213/1 125/221/1
f 123/218/5 125/221/5 121/212/5
f 124/220/6 126/222/6 128/224/6
f 2/4/1 4/9/1 3/8/1
f 4/9/2 8/14/2 7/13/2
f 8/14/3 6/12/3 5/11/3
f 6/12/4 2/5/4 1/2/4
f 7/13/5 5/11/5 1/3/5
f 4/10/6 2/6/6 6/12/6
f 10/18/1 12/23/1 11/22/1
f 12/23/2 16/28/2 15/27/2
f 16/28/3 14/26/3 13/25/3
f 14/26/4 10/19/4 9/16/4
f 15/27/5 13/25/5 9/17/5
f 12/24/6 10/20/6 14/26/6
f 18/32/2 20/37/2 19/36/2
f 20/37/3 24/42/3 23/41/3
f 24/42/4 22/40/4 21/39/4
f 22/40/1 18/33/1 17/30/1
f 23/41/5 21/39/5 17/31/5
f 20/38/6 18/34/6 22/40/6
f 26/46/1 28/51/1 27/50/1
f 28/51/2 32/56/2 31/55/2
f 32/56/3 30/54/3 29/53/3
f 30/54/4 26/47/4 25/44/4
f 31/55/5 29/53/5 25/45/5
f 32/56/6 28/52/6 26/48/6
f 34/60/1 36/65/1 35/64/1
f 36/65/2 40/70/2 39/69/2
f 40/70/3 38/68/3 37/67/3
f 38/68/4 34/61/4 33/58/4
f 39/69/5 37/67/5 33/59/5
f 36/66/6 34/62/6 38/68/6
f 42/74/2 44/79/2 43/78/2
f 44/79/3 48/84/3 47/83/3
f 48/84/4 46/82/4 45/81/4
f 46/82/1 42/75/1 41/72/1
f 47/83/5 45/81/5 41/73/5
f 44/80/6 42/76/6 46/82/6
f 50/88/1 52/93/1 51/92/1
f 52/93/2 56/98/2 55/97/2
f 56/98/3 54/96/3 53/95/3
f 54/96/4 50/89/4 49/86/4
f 55/97/5 53/95/5 49/87/5
f 52/94/6 50/90/6 54/96/6
f 58/102/2 60/107/2 59/106/2
f 60/107/3 64/112/3 63/111/3
f 64/112/4 62/110/4 61/109/4
f 62/110/1 58/103/1 57/100/1
f 63/111/5 61/109/5 57/101/5
f 64/112/6 60/108/6 58/104/6
f 66/116/1 68/121/1 67/120/1
f 68/121/2 72/126/2 71/125/2
f 72/126/3 70/124/3 69/123/3
f 70/124/4 66/117/4 65/114/4
f 71/125/5 69/123/5 65/115/5
f 68/122/6 66/118/6 70/124/6
f 74/130/2 76/135/2 75/134/2
f 76/135/3 80/140/3 79/139/3
f 80/140/4 78/138/4 77/137/4
f 78/138/1 74/131/1 73/128/1
f 79/139/5 77/137/5 73/129/5
f 76/136/6 74/132/6 78/138/6
f 82/144/3 84/149/3 83/148/3
f 84/149/4 88/154/4 87/153/4
f 88/154/1 86/152/1 85/151/1
f 86/152/2 82/145/2 81/142/2
f 87/153/5 85/151/5 81/143/5
f 88/154/6 84/150/6 82/146/6
f 90/158/4 92/163/4 91/162/4
f 92/163/1 96/168/1 95/167/1
f 96/168/2 94/166/2 93/165/2
f 94/166/3 90/159/3 89/156/3
f 95/167/5 93/165/5 89/157/5
f 92/164/6 90/160/6 94/166/6
f 98/172/3 100/177/3 99/176/3
f 100/177/4 104/182/4 103/181/4
f 104/182/1 102/180/1 101/179/1
f 102/180/2 98/173/2 97/170/2
f 103/181/5 101/179/5 97/171/5
f 100/178/6 98/174/6 102/180/6
f 106/186/2 108/191/2 107/190/2
f 108/191/3 112/196/3 111/195/3
f 112/196/4 110/194/4 109/193/4
f 110/194/1 106/187/1 105/184/1
f 111/195/5 109/193/5 105/185/5
f 108/192/6 106/188/6 110/194/6
f 114/200/3 116/205/3 115/203/3
f 116/205/4 120/210/4 119/209/4
f 120/210/1 118/208/1 117/207/1
f 118/208/2 114/201/2 113/199/2
f 115/204/5 119/209/5 117/207/5
f 116/206/6 114/202/6 118/208/6
f 122/214/2 124/219/2 123/217/2
f 124/219/3 128/224/3 127/223/3
f 128/224/4 126/222/4 125/221/4
f 126/222/1 122/215/1 121/213/1
f 123/218/5 127/223/5 125/221/5
f 124/220/6 122/216/6 126/222/6
o FLOOR
v 1.250000 -0.025000 -1.250000
v 1.250000 0.025000 -1.250000
v -1.250000 -0.025000 -1.250000
v -1.250000 0.025000 -1.250000
v -1.250000 -0.025000 1.250000
v -1.250000 0.025000 1.250000
v 1.250000 0.025000 0.766214
v 1.250000 -0.025000 0.766214
v -0.074165 0.025000 1.250000
v -0.074165 -0.025000 1.250000
v -0.074166 -0.025000 0.766214
v -0.074166 0.025000 0.766214
vn 1.0000 -0.0000 -0.0000
vn -0.0000 -0.0000 1.0000
vn -1.0000 -0.0000 -0.0000
vn -0.0000 -0.0000 -1.0000
vn -0.0000 -1.0000 -0.0000
vn -0.0000 1.0000 -0.0000
vt 0.275649 0.337819
vt 0.275649 0.543570
vt 0.224211 0.492132
vt 0.327087 0.337819
vt 0.327087 0.543570
vt 0.863336 0.999215
vt 0.275649 0.492132
vt 0.214342 0.999215
vt 0.275649 0.440695
vt 0.214342 0.003097
vt 0.327087 0.379303
vt 0.863336 0.195860
vt 0.224211 0.450648
vt 0.275649 0.379303
vt 0.267370 0.184721
vt 0.519586 0.003097
vt 0.275649 0.416501
vt 0.251456 0.440695
vt 0.251456 0.450648
vt 0.519586 0.195860
s 0
usemtl SueloTex
f 130/228/7 136/238/7 129/225/7
f 134/234/8 138/241/8 137/239/8
f 134/234/9 131/231/9 133/233/9
f 132/232/10 129/226/10 131/231/10
f 129/227/11 136/237/11 139/243/11
f 134/234/12 137/240/12 140/244/12
f 130/228/7 135/235/7 136/238/7
f 134/234/8 133/233/8 138/241/8
f 134/234/9 132/232/9 131/231/9
f 132/232/10 130/229/10 129/226/10
f 139/243/11 138/242/11 133/233/11
f 133/233/11 131/231/11 139/243/11
f 131/231/11 129/227/11 139/243/11
f 140/244/12 135/236/12 130/230/12
f 130/230/12 132/232/12 140/244/12
f 132/232/12 134/234/12 140/244/12
