# Blender 3.5.1
# www.blender.org
mtllib lab2.mtl
o FLOOR
v 1.250000 -0.025000 -1.250000
v 1.250000 0.025000 -1.250000
v -1.250000 -0.025000 -1.250000
v -1.250000 0.025000 -1.250000
v -1.250000 -0.025000 1.250000
v -1.250000 0.025000 1.250000
v 1.250000 0.025000 0.766214
v 1.250000 -0.025000 0.766214
v -0.074165 0.025000 1.250000
v -0.074165 -0.025000 1.250000
v -0.074166 -0.025000 0.766214
v -0.074166 0.025000 0.766214
vn 1.0000 -0.0000 -0.0000
vn -0.0000 -0.0000 1.0000
vn -1.0000 -0.0000 -0.0000
vn -0.0000 -0.0000 -1.0000
vn -0.0000 -1.0000 -0.0000
vn -0.0000 1.0000 -0.0000
vt 0.275649 0.337819
vt 0.275649 0.543570
vt 0.224211 0.492132
vt 0.327087 0.337819
vt 0.327087 0.543570
vt 0.996328 0.999215
vt 0.275649 0.492132
vt 0.214342 0.999215
vt 0.004355 0.999215
vt 0.275649 0.440694
vt 0.214342 0.003097
vt 0.004355 0.003097
vt 0.327087 0.379303
vt 0.996328 0.195860
vt 0.503125 0.992192
vt 0.275649 0.379303
vt 0.224211 0.450648
vt 0.496875 0.992192
vt 0.267370 0.184721
vt 0.477589 0.003097
vt 0.503125 0.521165
vt 0.275649 0.416501
vt 0.251456 0.440694
vt 0.496875 0.521165
vt 0.251456 0.450648
vt 0.496875 0.750000
vt 0.477589 0.195860
vt 0.503125 0.750000
s 0
usemtl SueloTex
f 1/1/1 2/4/1 7/13/1 8/16/1
f 9/19/2 6/11/2 5/10/2 10/22/2
f 5/10/3 6/11/3 4/8/3 3/7/3
f 3/7/4 4/8/4 2/5/4 1/2/4
f 10/23/5 5/10/5 3/7/5 1/3/5 8/17/5 11/25/5
f 7/14/6 2/6/6 4/9/6 6/12/6 9/20/6 12/27/6
usemtl 
f 10/24/1 11/26/1 12/28/1 9/21/1
f 11/26/2 8/18/2 7/15/2 12/28/2
o Cube.013
v 0.684740 0.023766 -0.264378
v 0.684740 0.273766 -0.264378
v 0.684740 0.023766 -0.694287
v 0.684740 0.273766 -0.694287
v 0.719056 0.023766 -0.264378
v 0.719056 0.273766 -0.264378
v 0.719055 0.023766 -0.694287
v 0.719055 0.273766 -0.694287
v 0.177833 0.023766 -0.706742
v 0.177833 0.273766 -0.706742
v 0.720470 0.023766 -0.706742
v 0.720470 0.273766 -0.706742
v 0.177833 0.023766 -0.675135
v 0.177833 0.273766 -0.675135
v 0.720470 0.023766 -0.675135
v 0.720470 0.273766 -0.675135
v 0.209554 0.023766 -1.243597
v 0.209554 0.273766 -1.243597
v 0.209554 0.023766 -0.673573
v 0.209554 0.273766 -0.673573
v 0.177946 0.023766 -1.243597
v 0.177946 0.273766 -1.243597
v 0.177946 0.023766 -0.673573
v 0.177946 0.273766 -0.673573
v -0.381813 0.023766 -0.733618
v -0.381813 0.273766 -0.733618
v -0.711653 0.023766 -0.733618
v -0.711653 0.273766 -0.733618
v -0.381813 0.023766 -0.765226
v -0.381813 0.273766 -0.765226
v -0.711653 0.023766 -0.765226
v -0.711653 0.273766 -0.765226
v -0.390868 0.023766 0.223273
v -0.390868 0.273766 0.223273
v -0.390868 0.023766 -0.765075
v -0.390868 0.273766 -0.765075
v -0.359260 0.023766 0.223273
v -0.359260 0.273766 0.223273
v -0.359260 0.023766 -0.765075
v -0.359260 0.273766 -0.765075
v 0.202299 0.023766 -0.190046
v 0.202299 0.273766 -0.190046
v 0.202299 0.023766 0.224417
v 0.202299 0.273766 0.224417
v 0.170692 0.023766 -0.190046
v 0.170692 0.273766 -0.190046
v 0.170692 0.023766 0.224417
v 0.170692 0.273766 0.224417
v 0.713109 0.023766 0.224015
v 0.713109 0.273766 0.224015
v -0.373705 0.023766 0.224015
v -0.373705 0.273766 0.224015
v 0.713109 0.023766 0.192407
v 0.713109 0.273766 0.192407
v -0.373705 0.023766 0.192407
v -0.373705 0.273766 0.192407
v -0.658411 0.023766 0.490637
v -0.658411 0.273766 0.490637
v -0.658411 0.023766 1.241463
v -0.658411 0.273766 1.241463
v -0.688545 0.023766 0.490637
v -0.688545 0.273766 0.490637
v -0.688545 0.023766 1.241463
v -0.688545 0.273766 1.241463
v -0.663225 0.023766 0.501677
v -0.663225 0.273766 0.501677
v -0.683731 0.273766 0.479596
v -0.683731 0.023766 0.479596
v -0.662066 0.023766 0.500473
v -0.662066 0.273766 0.500473
v -0.684891 0.273766 0.480799
v -0.684891 0.023766 0.480799
v -0.662264 0.023766 0.500699
v -0.662264 0.273766 0.500699
v -0.684692 0.273766 0.480574
v -0.684692 0.023766 0.480574
v -0.662466 0.023766 0.500919
v -0.662466 0.273766 0.500919
v -0.684490 0.273766 0.480353
v -0.684490 0.023766 0.480353
v -0.662898 0.023766 0.501363
v -0.662898 0.273766 0.501363
v -0.684059 0.273766 0.479910
v -0.684059 0.023766 0.479910
v -0.365990 0.023766 0.208493
v -0.365990 0.273766 0.208493
v -0.387151 0.273766 0.187040
v -0.387151 0.023766 0.187040
v -0.088020 0.023766 0.725243
v -0.088020 0.273766 0.725243
v -0.088020 0.023766 1.257147
v -0.088020 0.273766 1.257147
v -0.118154 0.023766 0.725243
v -0.118154 0.273766 0.725243
v -0.118153 0.023766 1.257148
v -0.118153 0.273766 1.257148
v 1.248741 0.023766 0.755367
v 1.248741 0.273766 0.755367
v -0.118823 0.023766 0.755367
v -0.118823 0.273766 0.755367
v 1.248741 0.023766 0.725233
v 1.248741 0.273766 0.725233
v -0.118823 0.023766 0.725233
v -0.118823 0.273766 0.725233
v 1.228929 0.023766 0.756937
v 1.228929 0.273766 0.756937
v 1.228929 0.023766 -1.247955
v 1.228929 0.273766 -1.247955
v 1.249328 0.023766 0.756937
v 1.249328 0.273766 0.756937
v 1.249327 0.023766 -1.247955
v 1.249327 0.273766 -1.247955
v 1.249907 0.023766 -1.221147
v 1.249907 0.273766 -1.221147
v -1.250528 0.023766 -1.221147
v -1.250528 0.273766 -1.221147
v 1.249907 0.023766 -1.251281
v 1.249907 0.273766 -1.251281
v -1.250528 0.023766 -1.251281
v -1.250528 0.273766 -1.251281
v -1.250501 0.023766 1.250438
v -1.250501 0.273766 1.250438
v -1.250501 0.023766 -1.250438
v -1.250501 0.273766 -1.250438
v -1.230102 0.023766 1.250438
v -1.230102 0.273766 1.250438
v -1.230102 0.023766 -1.250438
v -1.230102 0.273766 -1.250438
v -0.885127 0.023766 -0.256010
v -0.885127 0.273766 -0.256010
v -1.245877 0.023766 -0.256011
v -1.245877 0.273766 -0.256011
v -0.885126 0.023766 -0.287618
v -0.885126 0.273766 -0.287618
v -1.245877 0.023766 -0.287618
v -1.245877 0.273766 -0.287618
v -0.095179 0.023766 1.251111
v -0.095179 0.273766 1.251111
v -1.247578 0.023766 1.251111
v -1.247578 0.273766 1.251111
v -0.095180 0.023766 1.220978
v -0.095180 0.273766 1.220978
v -1.247578 0.023766 1.220977
v -1.247578 0.273766 1.220977
vn -1.0000 -0.0000 -0.0000
vn -0.0000 -0.0000 -1.0000
vn 1.0000 -0.0000 -0.0000
vn -0.0000 -0.0000 1.0000
vn -0.0000 -1.0000 -0.0000
vn -0.0000 1.0000 -0.0000
vn 0.0455 0.9990 -0.0000
vn -0.9167 -0.0000 -0.3997
vn -0.9166 -0.0000 -0.3997
vn -0.7509 -0.0000 -0.6604
vn 0.7201 -0.0000 0.6938
vn 0.7201 -0.0000 0.6939
vn 0.1131 0.9936 -0.0000
vn -0.7375 -0.0000 -0.6753
vn -0.2220 -0.9750 -0.0000
vn -0.7378 -0.0000 -0.6751
vn -0.7169 -0.0000 -0.6972
vn 0.0142 -0.9999 -0.0000
vn -0.7166 -0.0000 -0.6974
vn 0.7119 -0.0000 -0.7023
vn 0.7022 -0.0000 0.7119
vn -0.7022 -0.0000 -0.7119
vt 0.375000 0.000000
vt 0.375000 1.000000
vt 0.125000 0.750000
vt 0.625000 0.000000
vt 0.625000 1.000000
vt 0.875000 0.750000
vt 0.375000 0.250000
vt 0.125000 0.500000
vt 0.625000 0.250000
vt 0.875000 0.500000
vt 0.375000 0.750000
vt 0.625000 0.750000
vt 0.375000 0.500000
vt 0.625000 0.500000
vt 0.375000 0.000000
vt 0.375000 1.000000
vt 0.125000 0.750000
vt 0.625000 0.000000
vt 0.625000 1.000000
vt 0.875000 0.750000
vt 0.375000 0.250000
vt 0.125000 0.500000
vt 0.625000 0.250000
vt 0.875000 0.500000
vt 0.375000 0.750000
vt 0.625000 0.750000
vt 0.375000 0.500000
vt 0.625000 0.500000
vt 0.375000 0.000000
vt 0.375000 1.000000
vt 0.125000 0.750000
vt 0.625000 0.000000
vt 0.625000 1.000000
vt 0.875000 0.750000
vt 0.375000 0.250000
vt 0.125000 0.500000
vt 0.625000 0.250000
vt 0.875000 0.500000
vt 0.375000 0.750000
vt 0.625000 0.750000
vt 0.375000 0.500000
vt 0.625000 0.500000
vt 0.375000 0.000000
vt 0.375000 1.000000
vt 0.125000 0.750000
vt 0.625000 0.000000
vt 0.625000 1.000000
vt 0.875000 0.750000
vt 0.375000 0.250000
vt 0.125000 0.500000
vt 0.625000 0.250000
vt 0.875000 0.500000
vt 0.375000 0.750000
vt 0.625000 0.750000
vt 0.375000 0.500000
vt 0.625000 0.500000
vt 0.375000 0.000000
vt 0.375000 1.000000
vt 0.125000 0.750000
vt 0.625000 0.000000
vt 0.625000 1.000000
vt 0.875000 0.750000
vt 0.375000 0.250000
vt 0.125000 0.500000
vt 0.625000 0.250000
vt 0.875000 0.500000
vt 0.375000 0.750000
vt 0.625000 0.750000
vt 0.375000 0.500000
vt 0.625000 0.500000
vt 0.375000 0.000000
vt 0.375000 1.000000
vt 0.125000 0.750000
vt 0.625000 0.000000
vt 0.625000 1.000000
vt 0.875000 0.750000
vt 0.375000 0.250000
vt 0.125000 0.500000
vt 0.625000 0.250000
vt 0.875000 0.500000
vt 0.375000 0.750000
vt 0.625000 0.750000
vt 0.375000 0.500000
vt 0.625000 0.500000
vt 0.375000 0.000000
vt 0.375000 1.000000
vt 0.125000 0.750000
vt 0.625000 0.000000
vt 0.625000 1.000000
vt 0.875000 0.750000
vt 0.375000 0.250000
vt 0.125000 0.500000
vt 0.625000 0.250000
vt 0.875000 0.500000
vt 0.375000 0.750000
vt 0.625000 0.750000
vt 0.375000 0.500000
vt 0.625000 0.500000
vt 0.125000 0.750000
vt 0.375000 0.000000
vt 0.875000 0.750000
vt 0.625000 0.000000
vt 0.375000 0.250000
vt 0.125000 0.500000
vt 0.625000 0.250000
vt 0.875000 0.500000
vt 0.375000 0.750000
vt 0.625000 0.750000
vt 0.375000 0.500000
vt 0.625000 0.500000
vt 0.125000 0.750000
vt 0.375000 0.000000
vt 0.875000 0.750000
vt 0.625000 0.000000
vt 0.625000 0.750000
vt 0.375000 0.750000
vt 0.125000 0.750000
vt 0.375000 0.000000
vt 0.625000 0.000000
vt 0.875000 0.750000
vt 0.625000 0.750000
vt 0.375000 0.750000
vt 0.125000 0.750000
vt 0.375000 0.000000
vt 0.625000 0.000000
vt 0.875000 0.750000
vt 0.625000 0.750000
vt 0.375000 0.750000
vt 0.125000 0.750000
vt 0.375000 0.000000
vt 0.875000 0.750000
vt 0.625000 0.000000
vt 0.625000 0.750000
vt 0.375000 0.750000
vt 0.125000 0.750000
vt 0.375000 0.000000
vt 0.625000 0.000000
vt 0.875000 0.750000
vt 0.625000 0.750000
vt 0.375000 0.750000
vt 0.125000 0.750000
vt 0.375000 1.000000
vt 0.375000 0.000000
vt 0.625000 1.000000
vt 0.625000 0.000000
vt 0.875000 0.750000
vt 0.625000 0.750000
vt 0.375000 0.750000
vt 0.375000 0.000000
vt 0.375000 1.000000
vt 0.125000 0.750000
vt 0.625000 0.000000
vt 0.625000 1.000000
vt 0.875000 0.750000
vt 0.375000 0.250000
vt 0.125000 0.500000
vt 0.625000 0.250000
vt 0.875000 0.500000
vt 0.375000 0.750000
vt 0.625000 0.750000
vt 0.375000 0.500000
vt 0.625000 0.500000
vt 0.375000 0.000000
vt 0.375000 1.000000
vt 0.125000 0.750000
vt 0.625000 0.000000
vt 0.625000 1.000000
vt 0.875000 0.750000
vt 0.375000 0.250000
vt 0.125000 0.500000
vt 0.625000 0.250000
vt 0.875000 0.500000
vt 0.375000 0.750000
vt 0.625000 0.750000
vt 0.375000 0.500000
vt 0.625000 0.500000
vt 0.375000 0.000000
vt 0.375000 1.000000
vt 0.125000 0.750000
vt 0.625000 0.000000
vt 0.625000 1.000000
vt 0.875000 0.750000
vt 0.375000 0.250000
vt 0.125000 0.500000
vt 0.625000 0.250000
vt 0.875000 0.500000
vt 0.375000 0.750000
vt 0.625000 0.750000
vt 0.375000 0.500000
vt 0.625000 0.500000
vt 0.375000 0.000000
vt 0.375000 1.000000
vt 0.125000 0.750000
vt 0.625000 0.000000
vt 0.625000 1.000000
vt 0.875000 0.750000
vt 0.375000 0.250000
vt 0.125000 0.500000
vt 0.625000 0.250000
vt 0.875000 0.500000
vt 0.375000 0.750000
vt 0.625000 0.750000
vt 0.375000 0.500000
vt 0.625000 0.500000
vt 0.375000 0.000000
vt 0.375000 1.000000
vt 0.125000 0.750000
vt 0.625000 0.000000
vt 0.625000 1.000000
vt 0.875000 0.750000
vt 0.375000 0.250000
vt 0.125000 0.500000
vt 0.625000 0.250000
vt 0.875000 0.500000
vt 0.375000 0.750000
vt 0.625000 0.750000
vt 0.375000 0.500000
vt 0.625000 0.500000
vt 0.375000 0.000000
vt 0.375000 1.000000
vt 0.125000 0.750000
vt 0.625000 0.000000
vt 0.625000 1.000000
vt 0.875000 0.750000
vt 0.375000 0.250000
vt 0.125000 0.500000
vt 0.625000 0.250000
vt 0.875000 0.500000
vt 0.375000 0.750000
vt 0.625000 0.750000
vt 0.375000 0.500000
vt 0.625000 0.500000
vt 0.375000 0.000000
vt 0.375000 1.000000
vt 0.125000 0.750000
vt 0.625000 0.000000
vt 0.625000 1.000000
vt 0.875000 0.750000
vt 0.375000 0.250000
vt 0.125000 0.500000
vt 0.625000 0.250000
vt 0.875000 0.500000
vt 0.375000 0.750000
vt 0.625000 0.750000
vt 0.375000 0.500000
vt 0.625000 0.500000
s 0
usemtl WallMaterialV2
f 13/29/7 14/32/7 16/37/7 15/35/7
f 15/35/8 16/37/8 20/42/8 19/41/8
f 19/41/9 20/42/9 18/40/9 17/39/9
f 17/39/10 18/40/10 14/33/10 13/30/10
f 15/36/11 19/41/11 17/39/11 13/31/11
f 20/42/12 16/38/12 14/34/12 18/40/12
f 21/43/8 22/46/8 24/51/8 23/49/8
f 23/49/9 24/51/9 28/56/9 27/55/9
f 27/55/10 28/56/10 26/54/10 25/53/10
f 25/53/7 26/54/7 22/47/7 21/44/7
f 23/50/11 27/55/11 25/53/11 21/45/11
f 28/56/12 24/52/12 22/48/12 26/54/12
f 29/57/9 30/60/9 32/65/9 31/63/9
f 31/63/10 32/65/10 36/70/10 35/69/10
f 35/69/7 36/70/7 34/68/7 33/67/7
f 33/67/8 34/68/8 30/61/8 29/58/8
f 31/64/11 35/69/11 33/67/11 29/59/11
f 36/70/12 32/66/12 30/62/12 34/68/12
f 37/71/10 38/74/10 40/79/10 39/77/10
f 39/77/7 40/79/7 44/84/7 43/83/7
f 43/83/8 44/84/8 42/82/8 41/81/8
f 41/81/9 42/82/9 38/75/9 37/72/9
f 39/78/11 43/83/11 41/81/11 37/73/11
f 44/84/12 40/80/12 38/76/12 42/82/12
f 45/85/7 46/88/7 48/93/7 47/91/7
f 47/91/8 48/93/8 52/98/8 51/97/8
f 51/97/9 52/98/9 50/96/9 49/95/9
f 49/95/10 50/96/10 46/89/10 45/86/10
f 47/92/11 51/97/11 49/95/11 45/87/11
f 52/98/12 48/94/12 46/90/12 50/96/12
f 53/99/9 54/102/9 56/107/9 55/105/9
f 55/105/10 56/107/10 60/112/10 59/111/10
f 59/111/7 60/112/7 58/110/7 57/109/7
f 57/109/8 58/110/8 54/103/8 53/100/8
f 55/106/11 59/111/11 57/109/11 53/101/11
f 60/112/12 56/108/12 54/104/12 58/110/12
f 61/113/10 62/116/10 64/121/10 63/119/10
f 63/119/7 64/121/7 68/126/7 67/125/7
f 67/125/8 68/126/8 66/124/8 65/123/8
f 65/123/9 66/124/9 62/117/9 61/114/9
f 63/120/11 67/125/11 65/123/11 61/115/11
f 68/126/12 64/122/12 62/118/12 66/124/12
f 69/128/9 70/130/9 72/133/9 71/131/9
f 71/131/10 72/133/10 76/138/10 75/137/10
f 75/137/7 76/138/7 74/136/7 73/135/7
f 69/127/11 73/135/11 80/144/11 77/139/11
f 71/132/11 75/137/11 73/135/11 69/127/11
f 76/138/12 72/134/12 70/129/12 74/136/12
f 79/143/11 78/141/11 82/148/11 83/149/11
f 74/136/13 70/129/13 78/141/13 79/143/13
f 73/135/14 74/136/14 79/143/14 80/144/14
f 70/130/15 69/128/15 77/140/15 78/142/15
f 84/150/16 83/149/16 87/155/16 88/156/16
f 80/144/17 79/143/17 83/149/17 84/150/17
f 77/139/12 80/144/12 84/150/12 81/145/12
f 78/142/18 77/140/18 81/146/18 82/147/18
f 85/151/12 88/156/12 92/162/12 89/157/12
f 81/145/12 84/150/12 88/156/12 85/151/12
f 82/147/16 81/146/16 85/152/16 86/153/16
f 83/149/12 82/148/12 86/154/12 87/155/12
f 91/161/19 90/159/19 94/166/19 95/167/19
f 86/153/20 85/152/20 89/158/20 90/160/20
f 87/155/21 86/154/21 90/159/21 91/161/21
f 88/156/22 87/155/22 91/161/22 92/162/22
f 93/163/11 96/168/11 100/176/11 97/169/11
f 92/162/23 91/161/23 95/167/23 96/168/23
f 89/157/24 92/162/24 96/168/24 93/163/24
f 90/160/25 89/158/25 93/164/25 94/165/25
f 100/176/26 99/175/26 98/172/26 97/170/26
f 94/165/27 93/164/27 97/171/27 98/173/27
f 95/167/12 94/166/12 98/174/12 99/175/12
f 96/168/28 95/167/28 99/175/28 100/176/28
f 101/177/9 102/180/9 104/185/9 103/183/9
f 103/183/10 104/185/10 108/190/10 107/189/10
f 107/189/7 108/190/7 106/188/7 105/187/7
f 105/187/8 106/188/8 102/181/8 101/178/8
f 103/184/11 107/189/11 105/187/11 101/179/11
f 108/190/12 104/186/12 102/182/12 106/188/12
f 109/191/10 110/194/10 112/199/10 111/197/10
f 111/197/7 112/199/7 116/204/7 115/203/7
f 115/203/8 116/204/8 114/202/8 113/201/8
f 113/201/9 114/202/9 110/195/9 109/192/9
f 111/198/11 115/203/11 113/201/11 109/193/11
f 116/204/12 112/200/12 110/196/12 114/202/12
f 117/205/7 118/208/7 120/213/7 119/211/7
f 119/211/8 120/213/8 124/218/8 123/217/8
f 123/217/9 124/218/9 122/216/9 121/215/9
f 121/215/10 122/216/10 118/209/10 117/206/10
f 119/212/11 123/217/11 121/215/11 117/207/11
f 124/218/12 120/214/12 118/210/12 122/216/12
f 125/219/10 126/222/10 128/227/10 127/225/10
f 127/225/7 128/227/7 132/232/7 131/231/7
f 131/231/8 132/232/8 130/230/8 129/229/8
f 129/229/9 130/230/9 126/223/9 125/220/9
f 127/226/11 131/231/11 129/229/11 125/221/11
f 132/232/12 128/228/12 126/224/12 130/230/12
f 133/233/7 134/236/7 136/241/7 135/239/7
f 135/239/8 136/241/8 140/246/8 139/245/8
f 139/245/9 140/246/9 138/244/9 137/243/9
f 137/243/10 138/244/10 134/237/10 133/234/10
f 135/240/11 139/245/11 137/243/11 133/235/11
f 140/246/12 136/242/12 134/238/12 138/244/12
f 141/247/10 142/250/10 144/255/10 143/253/10
f 143/253/7 144/255/7 148/260/7 147/259/7
f 147/259/8 148/260/8 146/258/8 145/257/8
f 145/257/9 146/258/9 142/251/9 141/248/9
f 143/254/11 147/259/11 145/257/11 141/249/11
f 148/260/12 144/256/12 142/252/12 146/258/12
f 149/261/10 150/264/10 152/269/10 151/267/10
f 151/267/7 152/269/7 156/274/7 155/273/7
f 155/273/8 156/274/8 154/272/8 153/271/8
f 153/271/9 154/272/9 150/265/9 149/262/9
f 151/268/11 155/273/11 153/271/11 149/263/11
f 156/274/12 152/270/12 150/266/12 154/272/12
